<?xml version="1.0" encoding="UTF-8"?>
<svg width="8px" height="8px" viewBox="0 0 8 8" version="1.1" xmlns="http://www.w3.org/2000/svg" xmlns:xlink="http://www.w3.org/1999/xlink">
    <!-- Generator: Sketch 60 (88103) - https://sketch.com -->
    <title>icon/最低分</title>
    <desc>Created with Sketch.</desc>
    <g id="Slice" stroke="none" stroke-width="1" fill="none" fill-rule="evenodd">
        <g id="icon/最低分">
            <g id="Group-67">
                <g id="arrowdown" transform="translate(1.437500, 0.984375)" fill="#F5222D" fill-rule="nonzero">
                    <path d="M2.90625,0.353125 L2.90625,4.83515625 C2.90625,4.8359375 2.9078125,4.83671875 2.9078125,4.8359375 L4.5328125,3.1453125 C4.6640625,3.00859375 4.88203125,3.00390625 5.01875,3.1359375 C5.15546875,3.2671875 5.16015625,3.48515625 5.028125,3.621875 L2.81640625,5.9234375 C2.7515625,5.990625 2.66171875,6.02890625 2.56875,6.02890625 C2.475,6.02890625 2.3859375,5.990625 2.32109375,5.9234375 L0.09609375,3.609375 C0.03203125,3.54296875 0,3.45703125 0,3.37109375 C0,3.28046875 0.03515625,3.190625 0.10546875,3.1234375 C0.2421875,2.9921875 0.46015625,2.99609375 0.59140625,3.1328125 L2.21640625,4.8234375 C2.2171875,4.82421875 2.21796875,4.8234375 2.21796875,4.82265625 L2.21796875,0.3453125 C2.21796875,0.1625 2.3609375,0.01328125 2.540625,0.00234375 C2.740625,-0.009375 2.90625,0.15390625 2.90625,0.353125 Z" id="Shape"></path>
                </g>
                <rect id="Rectangle-37" x="0" y="0" width="8" height="8"></rect>
            </g>
        </g>
    </g>
</svg>