<?xml version="1.0" encoding="UTF-8"?>
<svg width="8px" height="8px" viewBox="0 0 8 8" version="1.1" xmlns="http://www.w3.org/2000/svg" xmlns:xlink="http://www.w3.org/1999/xlink">
    <!-- Generator: Sketch 60 (88103) - https://sketch.com -->
    <title>icon/最高分</title>
    <desc>Created with Sketch.</desc>
    <g id="Slice" stroke="none" stroke-width="1" fill="none" fill-rule="evenodd" opacity="0.998028274">
        <g id="icon/最高分">
            <g id="Group-69">
                <rect id="Rectangle-37-Copy-3" x="0" y="0" width="8" height="8"></rect>
                <g id="arrowup" transform="translate(1.437500, 0.984375)" fill="#52C41A" fill-rule="nonzero">
                    <path d="M2.21875,5.678125 L2.21875,1.19609375 C2.21875,1.1953125 2.2171875,1.19453125 2.2171875,1.1953125 L0.5921875,2.8859375 C0.4609375,3.02265625 0.24296875,3.02734375 0.10625,2.8953125 C-0.03046875,2.7640625 -0.03515625,2.54609375 0.096875,2.409375 L2.309375,0.10703125 C2.37421875,0.03984375 2.4640625,0.0015625 2.55703125,0.0015625 C2.65078125,0.0015625 2.73984375,0.03984375 2.8046875,0.10703125 L5.02890625,2.421875 C5.09296875,2.48828125 5.125,2.57421875 5.125,2.66015625 C5.125,2.75078125 5.08984375,2.840625 5.01953125,2.9078125 C4.8828125,3.0390625 4.66484375,3.03515625 4.53359375,2.8984375 L2.90859375,1.2078125 C2.9078125,1.20703125 2.90703125,1.2078125 2.90703125,1.20859375 L2.90703125,5.6859375 C2.90703125,5.86875 2.7640625,6.01796875 2.584375,6.02890625 C2.384375,6.040625 2.21875,5.87734375 2.21875,5.678125 Z" id="Shape"></path>
                </g>
            </g>
        </g>
    </g>
</svg>